<svg width="516" height="505" viewBox="0 0 516 505" fill="none" xmlns="http://www.w3.org/2000/svg">
<path fill-rule="evenodd" clip-rule="evenodd" d="M57 0C29.3858 0 7 22.3858 7 50V150C7 177.614 29.3858 200 57 200H157C184.614 200 207 177.614 207 150V50C207 22.3858 184.614 0 157 0H57ZM67 40C55.9543 40 47 48.9543 47 60V140C47 151.046 55.9543 160 67 160H147C158.046 160 167 151.046 167 140V60C167 48.9543 158.046 40 147 40H67Z" fill="#DDD5D5"/>
<path fill-rule="evenodd" clip-rule="evenodd" d="M366 305C338.386 305 316 327.386 316 355V455C316 482.614 338.386 505 366 505H466C493.614 505 516 482.614 516 455V355C516 327.386 493.614 305 466 305H366ZM376 345C364.954 345 356 353.954 356 365V445C356 456.046 364.954 465 376 465H456C467.046 465 476 456.046 476 445V365C476 353.954 467.046 345 456 345H376Z" fill="#DDD5D5"/>
<rect x="316" width="200" height="200" rx="50" fill="#DDD5D5"/>
<rect x="7" y="305" width="200" height="200" rx="50" fill="#DDD5D5"/>
<path fill-rule="evenodd" clip-rule="evenodd" d="M261.511 105C250.465 105 241.511 113.954 241.511 125V230.781C239.747 230.273 237.884 230 235.957 230H106C94.9543 230 86 238.954 86 250V260C86 271.046 94.9543 280 106 280H235.957C237.884 280 239.747 279.727 241.511 279.219V385C241.511 396.046 250.465 405 261.511 405H264C275.046 405 284 396.046 284 385V125C284 113.954 275.046 105 264 105H261.511Z" fill="#DDD5D5"/>
<rect x="316" y="230" width="200" height="50" rx="20" fill="#DDD5D5"/>
<rect x="232" width="50" height="80" rx="20" fill="#DDD5D5"/>
<rect x="237" y="425" width="50" height="80" rx="20" fill="#DDD5D5"/>
<rect y="232" width="50" height="50" rx="20" fill="#DDD5D5"/>
</svg>
